<svg width="512" height="512" viewBox="0 0 512 512" fill="none" xmlns="http://www.w3.org/2000/svg">
<rect width="512" height="512" rx="96" fill="#00529B"/>
<path d="M256 128C197.35 128 148.24 177.11 148.24 235.76C148.24 286.29 203.05 348.26 244.69 375.4C251.27 379.7 260.73 379.7 267.31 375.4C308.95 348.26 363.76 286.29 363.76 235.76C363.76 177.11 314.65 128 256 128Z" fill="#FFFFFF"/>
<path d="M256 180L224 220H240V284H272V220H288L256 180Z" fill="#00A4E4"/>
<path d="M184 276L160 288V316L184 304V276Z" fill="#00A4E4"/>
<path d="M328 276L352 288V316L328 304V276Z" fill="#00A4E4" />
</svg>