<svg id="Layer_1" data-name="Layer 1" xmlns="http://www.w3.org/2000/svg" viewBox="0 0 1280 229.63"><defs><style>.cls-1{fill:#171819;}.cls-2{fill:#b92025;}</style></defs><path class="cls-1" d="M413.74,84.43H460c7.77,0,12.18-.61,14.77-2.29a10.3,10.3,0,0,0,5.32-9.43,11.62,11.62,0,0,0-6.24-10.65c-2.28-1.37-6.24-2-11.26-2H443.87c-11.72,0-19.63-2-24.81-6.24A29.58,29.58,0,0,1,408.87,31c0-12.63,6.69-23.74,16.74-27.55C430.48,1.64,435.8,1,448.28,1h50.23V19.14H453.15c-9.43,0-12.93.3-15.37,1.52-3.19,1.83-5,5.17-5,9.74a10.91,10.91,0,0,0,4.57,9.28c2.74,1.68,6.08,2.29,14,2.29h16.28c14.61,0,22.38,2.13,28.31,7.76,5,4.72,8.22,13.69,8.22,23,0,10.5-4.72,20.09-12.18,25.26-5.17,3.5-11.56,4.57-27.24,4.57h-51Z"/><path class="cls-1" d="M545.23,102.54H523.62V1H574.3C591.65,1,598,2.85,604.58,9.7a34.82,34.82,0,0,1,9.59,24.35c0,10.35-4,20.09-10.65,26-5.94,5.32-11.72,7-23.59,7h-34.7ZM574.6,49c5.48,0,8.83-.76,11.11-2.59,2.89-2.28,4.72-7.31,4.72-13.09,0-6.54-2.59-11.26-7.15-13.09-1.83-.76-4.42-1.06-8.22-1.06H545.23V49Z"/><path class="cls-1" d="M651.46,102.54H629.85V1h49.61c14.76,0,23.74,1.67,29.68,5.48,7.61,4.87,12,13.24,12,22.82,0,9.14-2.74,17.35-7.3,22.38-3.35,3.5-6.24,5.32-12,7.3,11.87,3.2,17.66,12.33,18.42,28.16.76,9.43,1.06,11.56,2.43,15.37h-24.2a22.84,22.84,0,0,1-1.21-5.18c-.16-.91-.46-4-.92-9.28-1.52-17.81-8.82-24.2-27.54-24H651.46Zm30.28-56.62c5.33,0,8.53-.76,10.66-2.28,3-2.13,4.87-6.54,4.87-11.72,0-5.93-2.59-10.19-7.16-11.87a28.09,28.09,0,0,0-8.37-.91H651.46V45.92Z"/><path class="cls-1" d="M742,1h21.61V102.54H742Z"/><path class="cls-1" d="M808.67,102.54H788.12V1h27.55l40.48,75.64V1H876.7V102.54H850.22L808.67,28.12Z"/><path class="cls-1" d="M922.81,102.54H901.2V1h21.61ZM962.38,1h28.31L948.38,51.1l40.33,51.44H960.25L923.57,51.1Z"/><path class="cls-1" d="M1025.84,1V58c.61,16.89.92,18,5,22.06,4.11,3.5,9,4.42,22.22,4.42h20.69v18.11h-23c-19.93.3-26.63-1.37-35.3-8.07-9-8.06-11.11-15.22-11.27-36.52V1Z"/><path class="cls-1" d="M1166.31,19.14h-28.15c-15.22.15-19.79,1.52-24.5,7.46-3.05,4.26-3.81,6.84-4.42,16.43h57.07V61.14h-57.07c1.68,17.66,9,23.29,29.83,23.29h27.24v18.11h-28.15c-20.7,0-31.2-2.74-39-10.35-9.28-9-14.46-23.59-14.46-40.94,0-17.65,5.48-31.5,16.28-41.24,7.46-6.7,14.61-9,28.77-9h36.52Z"/><path class="cls-1" d="M1208.78,102.54h-21.62V1h49.62c14.76,0,23.74,1.67,29.68,5.48,7.6,4.87,12,13.24,12,22.82,0,9.14-2.74,17.35-7.31,22.38-3.35,3.5-6.24,5.32-12,7.3,11.87,3.2,17.65,12.33,18.41,28.16.77,9.43,1.07,11.56,2.44,15.37h-24.2a23.44,23.44,0,0,1-1.22-5.18c-.15-.91-.45-4-.91-9.28-1.52-17.81-8.83-24.2-27.55-24h-17.34Zm30.28-56.62c5.33,0,8.52-.76,10.65-2.28,3-2.13,4.87-6.54,4.87-11.72,0-5.93-2.58-10.19-7.15-11.87a28.14,28.14,0,0,0-8.37-.91h-30.28V45.92Z"/><path class="cls-1" d="M433.92,226.52a2.48,2.48,0,0,1-.27,1.45,2.2,2.2,0,0,1-3.08,0,2.48,2.48,0,0,1-.27-1.45v-53.8H411a2.85,2.85,0,0,1-1.54-.28,1.36,1.36,0,0,1-.63-1.26,1.44,1.44,0,0,1,.63-1.36,3,3,0,0,1,1.54-.27h42.14a3,3,0,0,1,1.54.27,1.38,1.38,0,0,1,.63,1.27,1.42,1.42,0,0,1-.63,1.35,2.87,2.87,0,0,1-1.54.28H433.92Z"/><path class="cls-1" d="M509.07,194.51h17.36a3,3,0,0,1,1.54.27,1.37,1.37,0,0,1,.63,1.27,1.42,1.42,0,0,1-.63,1.35,3,3,0,0,1-1.54.27H509.07v27.22h23.69a2.85,2.85,0,0,1,1.54.28,1.36,1.36,0,0,1,.63,1.26,1.44,1.44,0,0,1-.63,1.36,3,3,0,0,1-1.54.27h-25.5c-1.36,0-1.81-.63-1.81-1.81V171.36c0-1.18.45-1.81,1.81-1.81h22.43a2.91,2.91,0,0,1,1.53.27,1.37,1.37,0,0,1,.64,1.27,1.41,1.41,0,0,1-.64,1.35,2.82,2.82,0,0,1-1.53.28H509.07Z"/><path class="cls-1" d="M616.41,204.46H594l-8.59,22.42c-.46,1.09-.91,1.72-2.08,1.72s-1.54-.45-1.54-1.17a3.75,3.75,0,0,1,.36-1.36l21.34-55.43a2.12,2.12,0,0,1,4.16,0l20.62,55.43a4.31,4.31,0,0,1,.36,1.36c0,.63-.45,1.17-1.72,1.17-1.08,0-1.71-.45-2.17-1.72Zm-21.25-3.08h20.08l-9.86-26.58Z"/><path class="cls-1" d="M732.17,170.64a2.48,2.48,0,0,1,2.44-1.72c1.72,0,1.72,1.17,1.9,2.71l5.7,53.35c.09.82.18,1.54.18,2.08,0,1-.45,1.54-1.72,1.54s-1.72-.54-1.81-1.72l-5.52-51.18-21.52,46.75c-.45,1-1,1.9-2.17,1.9-.81,0-1.53-.45-2.17-1.9L686.41,175.7l-5.88,51.18c-.09,1.18-.63,1.72-1.8,1.72A1.5,1.5,0,0,1,677,227c0-.36.09-1.08.18-1.8l6.42-53.81c.18-1.27.27-2.44,2-2.44a2.32,2.32,0,0,1,2.26,1.72l21.88,48.56Z"/><path class="cls-1" d="M801.81,194.51h17.36a3,3,0,0,1,1.54.27,1.37,1.37,0,0,1,.63,1.27,1.42,1.42,0,0,1-.63,1.35,3,3,0,0,1-1.54.27H801.81v27.22H825.5a2.85,2.85,0,0,1,1.54.28,1.36,1.36,0,0,1,.63,1.26,1.44,1.44,0,0,1-.63,1.36,3,3,0,0,1-1.54.27H800c-1.36,0-1.81-.63-1.81-1.81V171.36c0-1.18.45-1.81,1.81-1.81h22.43a2.91,2.91,0,0,1,1.53.27,1.39,1.39,0,0,1,.64,1.27,1.43,1.43,0,0,1-.64,1.35,2.82,2.82,0,0,1-1.53.28H801.81Z"/><path class="cls-1" d="M897.4,226.52a2.48,2.48,0,0,1-.27,1.45,2.2,2.2,0,0,1-3.08,0,2.48,2.48,0,0,1-.27-1.45v-53.8H874.52a2.85,2.85,0,0,1-1.54-.28,1.36,1.36,0,0,1-.63-1.26,1.44,1.44,0,0,1,.63-1.36,3,3,0,0,1,1.54-.27h42.14a3,3,0,0,1,1.54.27,1.38,1.38,0,0,1,.63,1.27,1.42,1.42,0,0,1-.63,1.35,2.87,2.87,0,0,1-1.54.28H897.4Z"/><path class="cls-2" d="M123.75,206.27c10,2.77,19.39,0,26.87-7.48,8.31-8.31,11.63-19.94,8-30.74-1.66-6.65-7.75-15-16.9-24.1l-34.07-34.08C86.35,88.54,75.55,70.54,73.89,53.36,72.2,34.8,78.28,15.62,90.83,0L0,90.83l92.72,92.73C106.85,197.69,116,204.61,123.75,206.27Z"/><path class="cls-2" d="M292.05,142.32l-93-90.06c-17.17-17.18-24.09-23-30.74-25.21-9.14-2.49-18.56.27-26.87,8.59-7.21,7.2-10.25,16.34-8.59,25.2,1.94,8,6.92,15.24,21.33,29.64l29.64,29.64c26.59,26.6,36.84,44.6,37.39,65.65.41,12.84-5,28-14.46,41.81Z"/><path class="cls-2" d="M350.46,229.63a1.5,1.5,0,0,1-1.5-1.5V3.55a1.5,1.5,0,1,1,3,0V228.13A1.5,1.5,0,0,1,350.46,229.63Z"/></svg>