<svg version="1.1" id="Layer_1" xmlns="http://www.w3.org/2000/svg" xmlns:xlink="http://www.w3.org/1999/xlink" x="0px" y="0px"
	 width="100%" viewBox="0 0 1080 1080" enable-background="new 0 0 1080 1080" xml:space="preserve">
<path fill="#FFFFFF" opacity="1.000000" stroke="none" 
	d="
M505.000000,1081.000000 
	C336.686035,1081.000000 168.872070,1081.000000 1.029051,1081.000000 
	C1.029051,721.060913 1.029051,361.121826 1.029051,1.091364 
	C360.897522,1.091364 720.795044,1.091364 1080.846313,1.091364 
	C1080.846313,360.999939 1080.846313,720.999939 1080.846313,1081.000000 
	C889.121338,1081.000000 697.310669,1081.000000 505.000000,1081.000000 
M640.500000,757.000427 
	C655.812378,756.719849 671.252197,757.599060 686.412476,755.933899 
	C726.487610,751.532410 756.846130,717.313782 756.931763,676.979858 
	C757.124329,586.317200 757.147156,495.653351 756.909058,404.990875 
	C756.792786,360.704895 720.316589,325.004120 675.982544,325.001251 
	C586.652649,324.995483 497.322784,324.988373 407.992920,325.035004 
	C403.846741,325.037170 399.673767,325.344177 395.558990,325.868225 
	C355.261230,331.000275 325.105621,364.842041 325.043823,405.510803 
	C324.906525,495.840424 324.898651,586.170593 325.044708,676.500183 
	C325.116791,721.066284 361.472473,756.995239 406.009033,756.998718 
	C483.839355,757.004883 561.669678,757.000427 640.500000,757.000427 
z"/>
<path fill="#000000" opacity="1.000000" stroke="none" 
	d="
M640.000000,757.000427 
	C561.669678,757.000427 483.839355,757.004883 406.009033,756.998718 
	C361.472473,756.995239 325.116791,721.066284 325.044708,676.500183 
	C324.898651,586.170593 324.906525,495.840424 325.043823,405.510803 
	C325.105621,364.842041 355.261230,331.000275 395.558990,325.868225 
	C399.673767,325.344177 403.846741,325.037170 407.992920,325.035004 
	C497.322784,324.988373 586.652649,324.995483 675.982544,325.001251 
	C720.316589,325.004120 756.792786,360.704895 756.909058,404.990875 
	C757.147156,495.653351 757.124329,586.317200 756.931763,676.979858 
	C756.846130,717.313782 726.487610,751.532410 686.412476,755.933899 
	C671.252197,757.599060 655.812378,756.719849 640.000000,757.000427 
M459.732941,384.976624 
	C459.710144,384.735992 459.687347,384.495392 459.664520,384.254730 
	C459.396637,384.459137 459.128754,384.663513 458.394470,385.029175 
	C458.104187,385.218597 457.913727,385.480591 457.216583,386.099304 
	C416.673248,427.173645 376.129913,468.248016 335.430817,509.480194 
	C336.016052,510.108246 336.991669,511.225403 338.039795,512.269836 
	C382.284180,556.357605 426.428436,600.546936 470.883301,644.421570 
	C478.890717,652.324463 487.587189,659.849670 497.015656,665.917542 
	C511.385498,675.165405 526.937927,676.361145 541.457336,665.964294 
	C556.427673,655.244629 563.526672,640.634521 560.179443,621.833679 
	C557.847595,608.736267 550.039673,598.760071 541.220398,589.642456 
	C523.273132,571.088135 504.593536,553.235413 486.851685,534.491638 
	C475.906677,522.928528 465.288147,510.862701 456.018738,497.949005 
	C438.426849,473.440918 433.920319,446.153687 443.831696,417.422485 
	C447.533142,406.692688 453.505707,396.746338 458.817169,386.126007 
	C459.049622,385.882294 459.207092,385.597168 459.732941,384.976624 
M588.381836,544.118225 
	C601.221558,558.517273 615.059692,572.157654 626.696350,587.470947 
	C652.134094,620.945740 653.883850,656.385010 632.127991,692.676025 
	C631.332642,694.002747 630.730713,695.445496 629.874695,697.163086 
	C668.931824,657.928833 707.611145,619.074036 746.601074,579.907349 
	C740.226562,573.830017 733.202087,567.230286 726.283752,560.521118 
	C688.267761,523.654175 650.338318,486.697662 612.234131,449.922211 
	C603.259521,441.260468 593.987183,432.857178 584.323242,424.983795 
	C580.346069,421.743530 575.195251,419.284424 570.191528,418.089905 
	C556.412109,414.800476 545.213196,420.710236 535.255310,429.650757 
	C523.335999,440.352295 518.220032,457.603912 524.086121,471.385071 
	C527.091492,478.445404 531.425781,485.376678 536.650208,490.975159 
	C553.352295,508.872925 570.751404,526.120239 588.381836,544.118225 
M629.834778,698.441467 
	C629.658569,698.363586 629.482300,698.285706 629.306030,698.207825 
	C629.351501,698.403503 629.396973,698.599121 629.834778,698.441467 
z"/>
<path fill="#B92026" opacity="1.000000" stroke="none" 
	d="
M458.442749,386.442749 
	C453.505707,396.746338 447.533142,406.692688 443.831696,417.422485 
	C433.920319,446.153687 438.426849,473.440918 456.018738,497.949005 
	C465.288147,510.862701 475.906677,522.928528 486.851685,534.491638 
	C504.593536,553.235413 523.273132,571.088135 541.220398,589.642456 
	C550.039673,598.760071 557.847595,608.736267 560.179443,621.833679 
	C563.526672,640.634521 556.427673,655.244629 541.457336,665.964294 
	C526.937927,676.361145 511.385498,675.165405 497.015656,665.917542 
	C487.587189,659.849670 478.890717,652.324463 470.883301,644.421570 
	C426.428436,600.546936 382.284180,556.357605 338.039795,512.269836 
	C336.991669,511.225403 336.016052,510.108246 335.430817,509.480194 
	C376.129913,468.248016 416.673248,427.173645 457.673035,386.116241 
	C458.129456,386.133179 458.442719,386.442749 458.442749,386.442749 
z"/>
<path fill="#B92026" opacity="1.000000" stroke="none" 
	d="
M588.131592,543.868408 
	C570.751404,526.120239 553.352295,508.872925 536.650208,490.975159 
	C531.425781,485.376678 527.091492,478.445404 524.086121,471.385071 
	C518.220032,457.603912 523.335999,440.352295 535.255310,429.650757 
	C545.213196,420.710236 556.412109,414.800476 570.191528,418.089905 
	C575.195251,419.284424 580.346069,421.743530 584.323242,424.983795 
	C593.987183,432.857178 603.259521,441.260468 612.234131,449.922211 
	C650.338318,486.697662 688.267761,523.654175 726.283752,560.521118 
	C733.202087,567.230286 740.226562,573.830017 746.601074,579.907349 
	C707.611145,619.074036 668.931824,657.928833 629.874695,697.163086 
	C630.730713,695.445496 631.332642,694.002747 632.127991,692.676025 
	C653.883850,656.385010 652.134094,620.945740 626.696350,587.470947 
	C615.059692,572.157654 601.221558,558.517273 588.131592,543.868408 
z"/>
<path fill="#B92026" opacity="1.000000" stroke="none" 
	d="
M458.860901,384.867920 
	C459.128754,384.663513 459.396637,384.459137 459.664520,384.254761 
	C459.687347,384.495392 459.710144,384.735992 459.403351,385.023743 
	C459.073761,385.070862 458.860901,384.867920 458.860901,384.867920 
z"/>
<path fill="#B92026" opacity="1.000000" stroke="none" 
	d="
M459.181702,385.170746 
	C459.207092,385.597168 459.049622,385.882294 458.629944,386.284363 
	C458.442719,386.442749 458.129456,386.133179 457.976257,385.974182 
	C457.913727,385.480591 458.104187,385.218597 458.627686,384.948547 
	C458.860901,384.867920 459.073761,385.070862 459.181702,385.170746 
z"/>
<path fill="#B92026" opacity="1.000000" stroke="none" 
	d="
M629.638611,698.618164 
	C629.396973,698.599121 629.351501,698.403503 629.306030,698.207764 
	C629.482300,698.285706 629.658569,698.363586 629.638611,698.618164 
z"/>
</svg>